<?xml version="1.0" encoding="UTF-8" standalone="yes"?>
<svg version="1.1" xmlns="http://www.w3.org/2000/svg" width="800" height="800" viewBox="0 0 800 800">
  <def>
    <font id="8x8_border" horiz-adv-x="800">
      <font-face units-per-em="800" ascent="800" descent="0" bbox="0 0 800 800"/>
      <missing-glyph horiz-adv-x="800"/>
      <glyph unicode="&#x20;" d="" horiz-adv-x="400"/>
      <glyph unicode="&#x30;" d="M200 800h500v-700h-500v700M400 700h-100v-500h300v500h-200M400 600h100v-300h-100z"/>
      <glyph unicode="&#x31;" d="M300 800h300v-400h100v-300h-500v600h100v100M500 700h-100v-100h-100v-100h100v-200h-100v-100h300v100h-100z"/>
      <glyph unicode="&#x32;" d="M200 800h500v-700h-500v700M400 700h-100v-100h200v-100h-200v-300h300v100h-200v100h200v300z"/>
      <glyph unicode="&#x33;" d="M200 800h500v-700h-500v300h100v100h-100v300M400 700h-100v-100h200v-100h-100v-100h100v-100h-200v-100h300v500z"/>
      <glyph unicode="&#x34;" d="M200 800h500v-700h-300v200h-200v500M400 700h-100v-300h200v-200h100v500h-100v-200h-100z"/>
      <glyph unicode="&#x35;" d="M200 800h500v-700h-500v700M400 700h-100v-300h200v-100h-200v-100h300v300h-200v100h200v100z"/>
      <glyph unicode="&#x36;" d="M200 800h500v-700h-500v700M400 700h-100v-500h300v300h-200v100h200v100h-200M400 400h100v-100h-100z"/>
      <glyph unicode="&#x37;" d="M200 800h500v-700h-300v300h-200v400M400 700h-100v-200h100v100h100v-400h100v500z"/>
      <glyph unicode="&#x38;" d="M200 800h500v-700h-500v700M400 700h-100v-500h300v500h-200M400 600h100v-100h-100v100M400 400h100v-100h-100z"/>
      <glyph unicode="&#x39;" d="M200 800h500v-700h-500v700M400 700h-100v-300h200v-100h-200v-100h300v500h-200M400 600h100v-100h-100z"/>
      <glyph unicode="&#x21;" d="M300 800h300v-700h-300v700M500 700h-100v-300h100v300M500 300h-100v-100h100z"/>
      <glyph unicode="&#x3f;" d="M200 800h500v-500h-100v-200h-300v400h-100v300M400 700h-100v-100h200v-100h-100v-100h200v300h-200M500 300h-100v-100h100z"/>
      <glyph unicode="&#x2e;" d="M100 400h300v-300h-300v300M300 300h-100v-100h100z"/>
      <glyph unicode="&#x2c;" d="M100 400h300v-400h-300v400M300 300h-100v-200h100z"/>
      <glyph unicode="&#x28;" d="M400 800h300v-300h-100v-100h100v-300h-300v100h-100v500h100v100M600 700h-100v-100h100v100M500 600h-100v-300h100v300M600 300h-100v-100h100z"/>
      <glyph unicode="&#x29;" d="M100 800h300v-100h100v-500h-100v-100h-300v300h100v100h-100v300M300 700h-100v-100h100v100M400 600h-100v-300h100v300M300 300h-100v-100h100z"/>
      <glyph unicode="&#xff62;" d="M200 800h400v-300h-100v-200h-300v500M400 700h-100v-300h100v200h100v100z"/>
      <glyph unicode="&#xff63;" d="M400 600h300v-500h-400v300h100v200M600 500h-100v-200h-100v-100h200z"/>
      <glyph unicode="&#x2d;" d="M200 500h400v-300h-400v300M400 400h-100v-100h200v100z"/>
      <glyph unicode="&#x41;" d="M200 800h500v-700h-500v700M400 700h-100v-500h100v100h100v-100h100v500h-200M400 600h100v-200h-100z"/>
      <glyph unicode="&#x42;" d="M200 800h400v-100h100v-500h-100v-100h-400v700M400 700h-100v-500h200v100h-100v100h100v100h-100v100h100v100h-100M600 600h-100v-100h100v100M600 400h-100v-100h100z"/>
      <glyph unicode="&#x43;" d="M200 800h500v-700h-500v700M400 700h-100v-500h300v200h-100v-100h-100v300h100v-100h100v200z"/>
      <glyph unicode="&#x44;" d="M200 800h400v-100h100v-500h-100v-100h-400v700M400 700h-100v-500h200v100h-100v300h100v100h-100M600 600h-100v-300h100z"/>
      <glyph unicode="&#x45;" d="M200 800h500v-300h-100v-100h100v-300h-500v700M400 700h-100v-500h300v100h-200v100h100v100h-100v100h200v100z"/>
      <glyph unicode="&#x46;" d="M200 800h500v-300h-100v-200h-100v-200h-300v700M400 700h-100v-500h100v200h100v100h-100v100h200v100z"/>
      <glyph unicode="&#x47;" d="M200 800h500v-700h-500v700M400 700h-100v-500h300v300h-100v-200h-100v300h200v100z"/>
      <glyph unicode="&#x48;" d="M200 800h500v-700h-500v700M400 700h-100v-500h100v200h100v-200h100v500h-100v-200h-100z"/>
      <glyph unicode="&#x49;" d="M200 800h500v-300h-100v-100h100v-300h-500v300h100v100h-100v300M400 700h-100v-100h100v-300h-100v-100h300v100h-100v300h100v100z"/>
      <glyph unicode="&#x4a;" d="M300 800h400v-700h-500v400h100v300M500 700h-100v-100h100v-300h-100v100h-100v-200h300v500z"/>
      <glyph unicode="&#x4b;" d="M200 800h500v-700h-500v700M400 700h-100v-500h100v200h100v100h-100v200M600 700h-100v-200h100v200M600 400h-100v-200h100z"/>
      <glyph unicode="&#x4c;" d="M200 800h300v-400h200v-300h-500v700M400 700h-100v-500h300v100h-200z"/>
      <glyph unicode="&#x4d;" d="M100 800h300v-100h100v100h300v-700h-300v100h-100v-100h-300v700M300 700h-100v-500h100v200h100v-100h100v100h100v-200h100v500h-100v-100h-100v-100h-100v100h-100z"/>
      <glyph unicode="&#x4e;" d="M100 800h600v-700h-600v700M300 700h-100v-500h100v200h100v-100h100v-100h100v500h-100v-200h-100v100h-100z"/>
      <glyph unicode="&#x4f;" d="M200 800h500v-700h-500v700M400 700h-100v-500h300v500h-200M400 600h100v-300h-100z"/>
      <glyph unicode="&#x50;" d="M200 800h500v-500h-200v-200h-300v700M400 700h-100v-500h100v200h200v300h-200M400 600h100v-100h-100z"/>
      <glyph unicode="&#x51;" d="M200 800h500v-400h100v-300h-600v700M400 700h-100v-500h400v100h-100v400h-200M400 600h100v-300h-100z"/>
      <glyph unicode="&#x52;" d="M200 800h500v-700h-500v700M400 700h-100v-500h100v200h100v100h-100v100h100v-100h100v200h-200M600 400h-100v-200h100z"/>
      <glyph unicode="&#x53;" d="M200 800h500v-700h-500v700M400 700h-100v-300h200v-100h-200v-100h300v300h-200v100h200v100z"/>
      <glyph unicode="&#x54;" d="M200 800h500v-300h-100v-400h-300v400h-100v300M400 700h-100v-100h100v-400h100v400h100v100z"/>
      <glyph unicode="&#x55;" d="M200 800h500v-700h-500v700M400 700h-100v-500h300v500h-100v-400h-100z"/>
      <glyph unicode="&#x56;" d="M200 800h500v-500h-100v-200h-300v200h-100v500M400 700h-100v-300h100v300M600 700h-100v-300h100v300M500 400h-100v-200h100z"/>
      <glyph unicode="&#x57;" d="M0 800h300v-100h100v100h300v-600h-100v-100h-500v100h-100v600M200 700h-100v-400h100v-100h100v100h100v-100h100v100h100v400h-100v-300h-100v200h-100v-200h-100z"/>
      <glyph unicode="&#x58;" d="M200 800h500v-700h-500v700M400 700h-100v-200h100v200M600 700h-100v-200h100v200M500 500h-100v-100h100v100M400 400h-100v-200h100v200M600 400h-100v-200h100z"/>
      <glyph unicode="&#x59;" d="M200 800h500v-500h-100v-200h-300v200h-100v500M400 700h-100v-300h100v-200h100v200h100v300h-100v-200h-100z"/>
      <glyph unicode="&#x5a;" d="M200 800h500v-700h-500v700M400 700h-100v-100h200v-100h100v200h-200M500 500h-100v-100h100v100M400 400h-100v-200h300v100h-200z"/>
    </font>
</svg>
